# xmcd
#
# Track frame offsets:
#	150
#	14849
#	31608
#	43694
#	60792
#	74847
#	90635
#	104535
#	119302
#	135363
#	149714
#	163761
#	179525
#	192883
#	205371
#	220546
#	234770
#	251634
#	268169
#	283675
#	297698
#
# Disc length: 4179 seconds
#
# Revision: 1
# Processed by: cddbd v1.5.2PL0 Copyright (c) Steve Scherf et al.
# Submitted via: dBpowerAMP V4.0
#
DISCID=47105115
DTITLE=Various Artist - Hott Country Volume 277 Can
DYEAR=2019
DGENRE=Country
TTITLE0=George Strait - Every Little Honky Tonk Bar
TTITLE1=Dierks Bentley - Living
TTITLE2=Chris Buck Band - Good Ol' Days
TTITLE3=Tim McGraw - Thought About You
TTITLE4=Mitchell Tenpenny - Alcohol You Later
TTITLE5=Wes Mack ft. Sons of Daughters - Never Have I Ever
TTITLE6=Jason Aldean - Rearview Town
TTITLE7=Jade Eagleson - Count The Ways
TTITLE8=Kacey Musgraves - Rainbow
TTITLE9=Brooks and Dunn with Luke Combs - Brand New Man
TTITLE10=Kira Isabella ft. Levi Hummon - We Should Be Together
TTITLE11=Zac Brown Band - Someone I Used To Know
TTITLE12=Mackenzie Porter - About You
TTITLE13=Chris Janson - Good Vibes
TTITLE14=Hardy - Rednecker
TTITLE15=Kip Moore - The Bull
TTITLE16=Aaron Goodvin - Bars and Churches
TTITLE17=Spensha Baker - Old Soul
TTITLE18=Washboard Union, The  - She Gets Me
TTITLE19=David Lee Murphy - No Zip Code
TTITLE20=AJ McLean - Boy And A Man
EXTD=
EXTT0=
EXTT1=
EXTT2=
EXTT3=
EXTT4=
EXTT5=
EXTT6=
EXTT7=
EXTT8=
EXTT9=
EXTT10=
EXTT11=
EXTT12=
EXTT13=
EXTT14=
EXTT15=
EXTT16=
EXTT17=
EXTT18=
EXTT19=
EXTT20=
PLAYORDER=
